/* XPM */
static char *_adb003e8fe6457383f6e068aed14d2f[] = {
/* columns rows colors chars-per-pixel */
"128 128 55 1 ",
"  c #050303",
". c #0C0403",
"X c #130603",
"o c #190703",
"O c #1D0903",
"+ c #240C03",
"@ c #2A0E04",
"# c #2F1104",
"$ c #341404",
"% c #3A1705",
"& c #3D1906",
"* c #421C07",
"= c #461F08",
"- c #4C220A",
"; c #50260C",
": c #54290E",
"> c #572B10",
", c #5A2E11",
"< c #5D3013",
"1 c #613415",
"2 c #663718",
"3 c #673919",
"4 c #6B3D1C",
"5 c #6F401E",
"6 c #70411F",
"7 c #6F4020",
"8 c #744422",
"9 c #774826",
"0 c #794A26",
"q c #7D4D2A",
"w c #7F502D",
"e c #81522E",
"r c #845531",
"t c #875935",
"y c #895A36",
"u c #8B5D39",
"i c #8E603C",
"p c #91633E",
"a c #936641",
"s c #966945",
"d c #976A48",
"f c #9B6D4B",
"g c #9E724E",
"h c #9F7450",
"j c #A17654",
"k c #A47A57",
"l c #A67C5A",
"z c #A87F5E",
"x c #AB815E",
"c c #AD8462",
"v c #AF8867",
"b c #B38D6C",
"n c #B48F70",
"m c #B69171",
"M c #B89373",
/* pixels */
"  ....XX..XXXXXXXXX.....X.XXXXX.... ....X...XX..XX... .X.X.X..X-   .X.X...XXXXXXXX...  ......XXXXoXXXXX........................-",
"  O$%&&**&****---=*=**&****=-;--&-****-;-:-*=*&***&%$#$%&&&**%#-  o$*--&*--><><>>-**$$%&****=;;1444431,=&%$$%%$$%$%####$$#$$&&$,",
" .@:48898779q9rreqqwq889989etuyyeew00eipputee0000q8214440weer5$+  +:8eeteupshfgfpuut04460009eypjlzzlljfte979ww72777227799wwrdp-&",
"  @-137323244777442744874449rrqrwew0qwuureq08809841<,2446eeypw%+  o&160qeyipssfgptee844646640rypfjkjfau099999977772227779tyfnz>&",
" .o&-:>;-;::>,>;--=;:>>,<<><211333131566641<<1,<;;-**-;,136qy0%@  X#*:13448euurw6641<:,,,,,14889etyre93,,2221<>>>>,,,,,,,79izz,&",
".Xo$&;---**===&*&&&&=*----->>;;>;:;::,1<::::;::--&&%&&-;,130tq%#  X#&-:1<149wr95331<>-----:,13444874,>--;>:>;=--;>>>;-=-;>7tzl>&",
"XXo@%-;-;====*&$%%****---=->;----------;--:::;;;-&&&&&-;,,39ww&#X.O#&-<33149qq8421<>-==**=;>,222213,:;*=*=;;;;=;;;>>;==-;17tzk>%",
"XXo+$->>>-===*&$$$*===--;;>-----*&*-*----=:::-;:--=*&**-,<35ww&$XoO#&:134590w9743<:;=****-;,:,11:,1<=-==**-;>;;;;>>>;---;17ulj;&",
"XXX+$-,,>:=-=*&$$%&----:>>>>;--=*&&&&-----;;;;::;;-**&--><15wq&#XXo#&:3345qqq9884>;==*=**;>,::<,:>,>---=*==-:::;>>>>;;-;>27tlg&$",
"XXX+#-<,:--::=&&&&&---;,>>>,;-=&&&&&&&-;---;<<:::;-----;:<<4wq%#XXO@$-13448qe885<;;=---**:,,,<>,::,:-=======;>>>>>><>>-;,22rjd=#",
"XXoO#=>:>,,,:=----&---;:<<>;-&&&*%&--&&-;;--::;;------;-<<<5rw%#.XO#$-<3334qq951>-----;-;:>11,1,>:;:-====---;>,<12<>><>><27qdp=#",
".XXo@&;,,2<1;---;--&--;,>>--&&&-***----;;--;:<,;;--*-><<<<17rw$@.Xo+$-<11<24853,;==-:;:>>>,1112<>>::;--=;-;:,23222>>>>>>><7qpi&@",
"..XX@&->1211>--;,:;-:;;<<,;--%&--&*-::::;;;,<1::;;--:<<<<110yw%@..X+$-:<<:<31<,-==*=::><,1<<<211<,,,<:;;;;;<<24342>>>><>;>29uw$+",
"X.XX+$->,<331,>><:,;::;11,:;-%&%*&*-,<<:::<<1<<<<<,:<<,<<<19ir%+..X+#-;;;;<1<:-=***-;::<1,><<444421331,>;-;,,222772>>>>--;29tw$@",
"...XO#-;>,373<1<3<<>;:,1<,;;-&&&&&*-<<<<1<<<1331333243<<<,<7yr&@..X+$*---;::;-&*&%*=-;;<<>;>160006444421,;;::<14787,>>>-;>17rw$@",
"...XO#=;><77441131<>:,,<,,;--&***&*-,1311131113345848533<<35rw&@..XO#&=*--;--*-*&&**=;:::::<46qqe8886841<;:;><,27771>;;;>>>799$@",
"...XO#%-;<606641<>,:;<<<::>--&-&&**-,1211111<584666696664146ue&@.XXo@$*****=====**%*=:::>,<<3600we887733<<>><1<<141>>->-;>>497@O",
" ..o+$&-:<460641>,>::<<<<<<;*&*&&**;:<11<1313564686660e64440tq&+..XX+$&*****==;==&%*==-:>1<12600ww9574<<<<><<<1>>2<>---->>,371@O",
"..Xo+$&-;,36641<,>:,<<133<<;----**-:><><11114465486460662128e0%@..Xo+$&**&**==-=**&***=:<2111466008573<<2<><<1<>11>-=--;><1773@O",
"..Xo@$*-;<1441:<<:<<13344<;;-;-;:--::<:<<1<1<44568666863<:16e8$+..Xo@$*==*&***==**%%$&*-:<<,<3135354333<11<<<<>,>1,:==;>><37w7#@",
"..XO@$&-;<144<>:::<13543<:;;;<:<<<<:::,,:::,13568665442<;:<6e0$@..Xo@&;:-=**%&*=**%%#%%=;>>:>:><<<13<<<><<<<<<><<11>-->><<28w9@+",
"..Xo+$*-:><11<<>:<35444<<;-:::<11<1<,;:::--:135553534:>>--:3q8%@..XO@&>,>==***==**%%#$%*-::::;;>:<,<;><><,<143<<,<1>;:>><279w8$@",
"..Xo+#&--;,<<111<3454541:-;:;:<1144<:-;::::;<3553311>:>--=;<84$@.XX+@&<,<:;;==-**%%$$$&*=;>>:;;;;::;--->><<4431<111>>>112778w8$@",
"..XO+#&--;::,1121355453>;--;:;<14441;:;>::;:,,1551<,-;;-=*-,64$@..XO@&:131<:;=-=*%%$#%**-:<>;-;;:-:-----><2333<11211><174799t9$O",
"..XO+@%&=-:>,,,23133531,:;;::;<36441:;;:<>:;;:<431,,:----*-,44$@X.Xo@%;44411>:;-**%%%&*=;>>>;-:;--;----:,<<221<1141<<<4477qru9%O",
"..XoO@$%==-;>:,,<<<3351<<:::::<36411<>:,>>::;:343<,,:------,42@@..XO+&>46644,,;===*****=:>:;-::>::,:-;;<<<<2<,,<<1<,>>378qria9%+",
"X.XoO+$$***-:,,:>:><5351<,<,<,<346444<:<<:;--<4431,::;--=**:2,@@..Xo+&;49084<:;-==**==--:<:;;:,,,,<<,,,<<<<,:;:;>>,><<4999wtuq$+",
"..Xoo+@$%&&*-;;;-;;<<351<,;,,<<34422,,:;;-=*;:1<,,---***&%&=:;@+..Xo@$;280841;-;-===-=-*-;;;;:><,:<<<,,,<1,:-------;;><4347wu9%#",
"X.Xooo++#@$$&*&%&&-*;:<:;---;;-:<,:--=*&%$$$&&**&&%%$#@#++@%==++. .XO@&>22<,:-**=***&&%%*****=*;:------;;--*&$%%#$%&&&&--;<4q4%#",
". .XXXXoOOOO+++++@@#$%%$$$$%$$#$%%$$$@+++++OO+++++OOOOoXXXX+#%OO ...Xo@$&***%$$$#@@#@@++++@+@@@$###%$$#$$$#++O++OOO++++@##%=,>@@",
"    .   ....XXX. XXoooooooooooooXXoXXX.......X.X...X... . ..oOX+    ..XoO+OO+OooXXXXXXXX.XXXXXXXXoooooXooXoX.X.XX..X.X.XXXoO##o@",
".X.....   ....X. XXXoooooXXXXXXXXXXXX.......X..... ....     .X o... ..XXoooOooXXXXXXX.X...XXXXXXXXXXXoXXXXXXXXXX.X XXX..XXooOOX+",
"...  .    . ..    ..XXXX..XX...X+...XX....XXXXX.X.....       .   .  .  X.oXoXXXX... ...   .XX.X%  .oooXoXoOoooXoXXXXXX.XXXXXX...",
"%&**&***&&%$$$$###%&*-::-::--=&@o.O$==*&**=---=-*--**&$#@@@##$@@##$#$&--:<<,,--*&&*%$$$$$$*-*&@*  +-,<<<34466642<,>1<<:-:-----&&",
"08q0weew00q064454458rsfsggfpiu5@  +-40890ryuuiuitiuuee84<1143323<11340rtipsfspte009868668qtui8@+  #<tpssglxmMmxgfffspfgstttut099",
"6880weyq0qq06666448wtfggfgfiaaq#  o$;1488eryyaaaiiuyr04411<13<11,,,130ewtipyyyeeq0q90060eeusjr$+  +-38eeiplxbxffppappppe090q0446",
",<244844586321<<>,178wteq9660e5#  .+$=:<2488qreyte6331,;-=--::;:----:35458853236644211<1446rae%+  o$--1140tpieeqq686664311<,,,;>",
";:,122311441<:::;><<3884441<181#  .o+%;>,14484qre064::;-**-*--;:-***-;,:<11<><<<211<<::>:146te$@  X@$-:,<36665431<<1<4<,;-*--=-;",
"::,14433444<<:::;1<<155441:::3<# .Xo@%-:,1448499004<:;;-=----;:,:;-*--;-;:<:::<<,11:>:;:;<14e9$@XXo+$-::,156532<,-:,<11<;-****-:",
",<<142443543<::;<35545853<:-;31+  .o@%-,13898898641:;-;;--;--:<1,:;;;;--;-;;:<<:,:;----;;>14e0&@.XoO#&-:<1553<::--;,<111,--*&--:",
",<<144445531<::,<35755453<;-:<:+  .o@&;<380q00q441:;---:::,::,131,:><;-;--::>:<:--****--;:<4re&#XXXO#&-:,<31,:::-*-::11<::--*-::",
"111445445533<:,<<15743341:---<:+ ..o$=:1490qq0042,:;--;:<<,::<332,,:::;;;--;::>:-**&%&--->16re&$.XoO#*--:,::---:=-*--,:,:--**-:<",
"12444444331411<3134413431:;:<3,+  .O$-14609q06531:;;;;::<:::,,352>:<<::--**---;:--**&**;><36ur*$..XO#&--:--*----***;;-:;--*---:<",
"132444444321114331<11<4<<,;,183+ .XO$;26880ee943,:::,::<:;-;:<3331,<<::-*$%&*-;---*--*=-<149yr&@..Xo#%----**-----**------&****-,",
"<<115844331113553<<<331<<:;1405$  XO$;1469ete862:;;;:<<:-;--:,1311<<1<;=&$%%**;;--;--*-;><30ur*@..Xo+$-&&%*----&****--*-*&&*&&*;",
"--:38888743135853<134111:;<1405#..X+$;4488ete03,;-;;;::;----:;:141<11<,=%%%%*-;::;:---;;><14te*#.XXoO#%%%%&*-----=*--*-**&&&%&**",
"*-;26999831<3543433333<<:<<<4e5#..X+%;4668qe84<;;--;;:-;--*--;:12<<<<<:*%&&**-:<1,;;-:;:>:<3ee*#.XXo+#%%%%--;:;;;--=*-*--%%%%&&&",
"*-;<40qq511355313431431<<:;<4w9$ .X+$-16868062,,;-::--;:--**-:,32<<,>;-**&***-:11<,,:;;::-,1e0*$X.Xo#$%***--::,:;;;---*-*$$%$&**",
"--:14806441221<13412441<,::;208$..XO$*,4648842<1:;:,:-:;--%*--,11,>:;;-==***=;:111<1,:;-;-:3ee=%.XXO+$*----:::,1<>::;-;-=&&&%&&*",
"--,14804443<1,:<1444411<,,;;<64$. XO@%-<448841<1<<<::;----%&-:<<1:<:;:;;=**==;>21<11<::-==;4ui-%X.Xo+$*---*;,,,31<<<:;;--=******",
";,<3488441<1<<:,<111<<1<,::,13<@  .X+$;,46642<241<:<<;---*&&--::<::;-;;;-===-:<4111,<::-=-:6fp;%X.X+@$-;:--:><13411<::;;-*=-=-=-",
":11144541<:,:,<,1<<,::<,,:,114,+  .X+$->446433441<,><:;;-***----,,>:--:>:;;-;,4441<,:;---:1egp=%XXXO@%-:,:::,<4411:<:;:;-*--;;;;",
",<<334441:::::>,1<,>:;:<,>>,16,+  .XO#-:33446683<,>;:::;--***---,,,,;><<<:::;<4444<,:---=:3ygp=&XXXO@$-:,,<,,1441<,>:;,:-*---;>:",
"<1334744<::,<:><,,:;;--::,:,141+  ..X@*-<<400q04<<::;;;:;-***-:,<<<<,,<<>><<><34642,:---:<4tga=$.XXO+$*;,><<<<2111<,>,:;-***-><1",
"22444994,:,<:;,>>:;;=-;:,::,14,+   .o+%=:130q0443<:;-=-;--*---:<<13<<<2<<<2<1<34342,:--,<36tkp*$.XXO+$*-:<:<<111<1<;,,:;-=*-:144",
"64488884<<<::;;:::;-**->,1<:,<:O  .XX+%*;1466443<<>;*-;;;----;,133344331<234332421<>;;:,339ugu*@.XXO+$-:::::,<21<<:>:,,>;;;;:166",
"884449862,<;;--:>:;--*--,,,,:,-o  ..o+%=:124421<<>:-:;:;::::-;,24466444444666442<1,,:;:<116rat&@.XXo+$=,,:;:>11<,>:>>1,<::<<<469",
"844484441::==-:>::;:---;,,,:,1;O  ..O+$->112221,<:::::::<::;-:,346966646666444422<,<<:::,>4eie%@..Xo+#=<,><<><1<,:;,1433,<324606",
"64434211>===*-;:,:::::;,<<<,11-O  ..O@%=:>,21<>>,:::,1<::::;-;,3366ee9696e64<24321111:::,>39eq$@.XXX+#=,2<1,<<,:>;:;1444446000q6",
"44111,;;=*&***--:;;;---:,,::11-o  ..O@*;>,,1<>:::;;;:<:>-*=---:,344666646663,,>,::;>:-*-;:1406$@..XXo#=,,,,1>>::;;-:,14466609q96",
",:=-==&&*$@##$#%&%$%&&&&*-**;-&X  ..o@&=:;;;--******-*=*&%%&*&*->:-:,>>><,:;-*&&%%&&&%$%&*-:11#+...XO@&=*=;--*==*&**=::,1><<<1<<",
"$%###@++++OOoOoOOOO++++++++#$$#.   .XO@$%%$%$$@@@$@@#@@++++@@###$####@#$%$@##++++OO++O++++@%*&OO ...X+@$$$$%$$$@@$@@@#%%%%*&&%%$",
"oXXXXXXXX.XXX.......X....XXXooX.    .XXooOoOoooXXXXXXXXXXXXXXXXXXXXXXXXXXoXXXX.... X.X.X.XXX+OXO  ....XXOOooooXooXXXXXXooOOooXXo",
"XXXXXXXXXXX..........XX....XXXX   ..X.XXoooXXXXXX...XXX.XX.XXXXXXX.XXXXXXXXX......X....XXXXXXX.X......XXXXXXXXXXXXXXXXXXoXXoXXXX",
" .XXXoX.XXXXXXXXX.XX.......X.. .    ... XXXXX.... ...X.......X$  ...XXXXXoooXX.XXXX...X..X.. .  .  ....XXXX.. .........XXXXX.o$+",
" o&;:----:,<<;--::----*&*---*&$$$$$%&&&----;:--&*%$***=-&&&&%@*  O%=;:<,,441:;**=-*-=*--***&$$$$%&%***-;::-*&$$$$%%$$&*;;:;-&@%X",
" +:0yitripggjgsppaiuuyeqeyte0ee66656868eeeusfptq0ettuuusyewt5$@ .+-0pssssgjfute9rteeeteeeeq86588680etippsspt044668666eepuppp4$+.",
" o&<8e0qeipsspiireeuiue00qe0e00e64444355wripapyyyysapppiuuahi%+  o*3eppuuupte06666eeeee09096668668qetipspppieq9089689etetifjr$+.",
" o+*;1<13580006544609884411123431<:;;;-:36qrq080eryte09009rfy%@  X@;148644642<<><134541<111<1231<<5qqeeeeetq6641,,,1244459rt9$@.",
" XO#&-;;:<<5443,,,344441,:<1<<1<:-**-*--,489546890qqq441319ue%+ .X@%;,<,<<1,;;;=-,111,<:>:,,<<31,34880eweq9631<>--;:,><<11494$+.",
"..o#$%-;-:<551::,1344111,,,1,<,--*****--;<88665446866311<18eq%+..X+%-;;;:-:--;-=;;::,:::>,<<112331466809q04211<:;-;::;<<<<341#+.",
" XX+#--;;:,<<,,<<1445422<<11,>:=&***&-::<166886422224<,,<<8yq$+.Xo@$*-;;-=-;----;,,,,,:;;<42145655654344342211<:---;;:<,,,242@O.",
" Xo+$*;;:;<,::;:<28964241,<,,:;=**&*--::,,36664112<1<::,,24e0%@.Xo+$*---=*-:-;;;;,,<,,;:,113356eq898441112211<,:--==-;;:,<<71#O.",
" .X+$*-:::::--:,,180942341<,::-*****--:::,24641<133<<::-:,488%#..XO#%=-=*=;>>;>>:,,<<:,,<1,146ette008611121<<>>---*----;;,<41++.",
"..X+$*;;;::-;:::,146644432<:::-**-----;-:<35411111311:-**><88%@.XXO@&=**==;><<,,:::1,,,:<,:146etewww0841<,,,<:;--==;;-=---;42#+ ",
".Xo+@&-;,;::::<<,246841111<<,:;=-;-;:---:,4541114411,--&*-184%#XXX+@*=--==-><<,>:,,<,,,,:::1666ee0qeq53<<<::,::-=--::;-=--;31$@.",
".XX+@*-:<:,:::,<11464421<<<:>:---,,,::;-:<454234431,;-*$%*,86$#.XXO@%*-;;--;,<:-;::,<3<,,::<35456we884<:;::>,>:-;;:>:;-***;23$@.",
".XO+$*-:<,:,,<::<1454431<,>::-**-<<1,:,<<1568664311,;=&$$*,86%#X.XO@%*-;;;:->>,;:::,113,<<,<1433666431<::::;,,,:;::,,;=**-:44%#.",
"XXO@$*-::::;:<<;;<142211<:;;-=*-:<333131144680862221:=*%%-:46$@ .XO@%&--;;;;-::::,,<14431:,,21<<331,<,:-----,<1,>>,11:;**->48%$.",
"XXO@%*--::-,,<;:<11<<1<:;;;;=-*--:<3555334466864411,;*&&**-21@+...X+$*=;::---:;-:<1<14121,<122<<11:::---*--::,11<1244,;-=-,96$@.",
"XXO@$*-,,::::,>:,1<1,,,:-*--*-*--:,<354523533660311,-*&&&*-<,++...XO@%=;>:;-*;:;:,133311<,<<1<:;::----***---;<34444664<;-;<e6%#X",
"XXO@%-:,,,,;;;:,,<<,:,,-***&*-----:<25533521136641,;--&&&**<,@O ..Xo+$*;,,:---;;,333332<<<22<,;;;::-----*-;-:<36089063>;-:1ee*@.",
"Xo+@&:<11,,:;-:::<,::::;-&&%*------:22421,,1216641:;--=***;<:@+  ..X+%=:,,,;;:::,3331<<1<<<<,;;;--****-*--;:,<360e066<;::<3ee%$.",
"XO+$-,1<,<:--;:;-:---;;--***--;---::<11<,:,<123641::;:;--;:<,+O  ..X+&*;<<,,::::,1<,:,,,>>;::;;---*&**----<11440ee944<>:<<3ee*$X",
"XO+%-122<>;---;;---&*-;-------:,;;::::::;::<33351<>::;:-:<161@o  .XX+%*-<<<,11,::,1:::<,>---;-=--*****---:<1468ee941<<,<,,3eu=%X",
"Xo@&-,24<>;--;:--*****-*---;;;:<::;;;;;;;;:<3311,<:;;:::<48q3@O ..XO@*--><,,<<1>;:::;:<<<>;-**=;-&-*--;,1<<460ewe42>:<<>>13yt=%.",
"X+@$*>441<>;-;;--******-*-;,,:,,:;------;::<22,:>:>;;;>118qe8$+. .X+$*-:::<><<<>;-;;:,<11<>===--*&**-;,444468eqq43<:::>::13ee*$.",
"oO+%=:<212<:-=;;**-*&****-;:12<,:;-*----:::<,,,,<,;;;,3446qpe&@..XX+$-::<<<>:;;:--;:,,13<<:;:=-=-&***-,260800ew8432:>:--:<398&#X",
"Xo+$*;,4333<>---****&&***-:1144<:-***--:,,,,::,::;;;:14856rpt&$ .XO@%-:>><<<::;;--;:,2442<;--===**&*-;,<488q0rw4211<,---;:143#@X",
"XXO#*:,46461<>-;-***&%&*--;13441::----::,,:;;:,,---;>16658ygt*#..XO@&;:>,<<<<;;-=-;:14442<:;-**=&&%*-::,1400qq943<11:;--;;:1,@+.",
".Xo@%;2466642>>>:--*&$%&-,<35531,:-;-,,<1,:;:<,:;-->124458tpe*#X.XO#*-1,>><12>;---;:<1331<;;**%&%$$&-:,<14889865422>;:;--;=>=++.",
"..o+$-<466433<,,:-**&%%&-,<3331:::-;::::,,;-;;;-**;>,1<115eiw&# .X+@*;,,<<<11<:==*--:11<>:=*&$@#$@@$%-;:,35413341<1:;--==*==*oO.",
".XX+@&;,111,,>;-*&$$##$$*--;;------***----&%%%%$$$&&*-*--<5w8&#...O+$*-;-;=-;;=&&&&*=;-=*%$@@+++++++#%&**-----;;---*%$$$$@#%%ooX",
"  .XO+#%******&$#+OooOO+@$#$$$$@$$#@+#+#+#@OO++O+++++++##%-,<$$..XXo+@@$%$$@##@@+@++@$@@++oXXXX.XXoo+++@@+@##$$$$$#@+OOOOOo++Xo.",
" ...XXXooO+O+OOXXXX...XXoXXXXXXXXXXXXXXX.XXX..X ......XXXo+$&@$.....XXooooXXXXXXXXX.XXX.X......   ..XXXXXXXXXoXooXXX.......XX.XX",
"....XXXXoOooooXXX.. ...XXXXXXXXX  XoXXoXooXoXXXXXX.... .XXXooXXX.....X.XX.X..X......... .  . ..   .XXoXXXXXoooOOooX...... .  .  ",
". ..X.XXoXXXXX . . . ..........Xo$$;,,1244<<:----&-&&&&-;,<454131:---------*&*&&%$$%%&&$##+++@O  o$-:1111,<3446663,-*%%&&&%$$##$",
"%&**-;;-11111,-&&$$$#$#$$%$%$&*-$@%8sflvxcgsppr09wwe8550eiiglvcccfuetyyewe000q6008680qq044214,+  +;eppffgsfjjgxvblstq80eeee85413",
"00eeippsgglklse96006665656968wpw%.+2psfgggppytq88q8855358erisjjjgpueeew00066466w0weeetee8448e6$ .o*6etuppsiipsghlhpe886qttew8433",
"99qeipspffssfy0880q66886qw98wpxs*.o*288qq096553113<<:<<<333450w0w84311<111<<<11368666641<:,2q8%  X$-,399qq68qqeeeq841<4465541<::",
"135880800ee9051<<<<,:<2133338tfp=Xo$=<2121,<11<::::;;:<,<:;:<31131<;-;;-;:;:::,<4464331,;--1e0*..X@$=,4466313434843<,,:,<<<<<;-:",
",<35343134333<:;------::,<115wsp=.o@*-::::::<,,:;;;;:<<<<;:;::::1,:****--;;-:,<,3464421:---2e0&.XoO@*;<254311141431<:;-,<<<<,;;;",
";<131<<<1<:<<,:---*&&*--:,,15epp-XX@&-;:::-:,::-;-;;<33<<1:;:--:><:=*&&*-;-;::,<444441,::;<6ye$.XXO+&-:,42114144211,::::<<<::;;:",
"<<:<<,,:,,::::-*%&%%%&-&-:,<5wfg-Xo$&-::::--::-:;-;<<31111<,;--:<>:-*&%**-*;,,<28444442<<24que%.XXo+&=;><<<1114561<,;-::::::--->",
"::::;:,,::;:,::-*&$$$&&--::<3wfg-.X@&*;:;-=-:-;;;::<<11<1331<::<<,>;=**&&**-<,1484424441349eat$X.XX+$&=-:>><346653<::::,:,::--;:",
";-:::;:::;::<:-*&$$%%**-:::,4whh-XX@%*;;=***--;::::;;,<115351,,,<,;--*****--::134424664649euse$...o+#%**;:::1445<<<:---;;<<<<;;;",
";-;::;:;:<<<<:-*%$$$%-;:<<:,5rjg*.X+$*****&&&*-;-::,::131<1531<,,:--=**&&**-:::<11116qeeeeyise&..Xo+@&**---;,1343<<:-;::;:<<1<<,",
";;-<:::;,<331<-*%$$&*-,<,,,<6efi*.X+$&***%&&&--:;::;::<333111<<,::;-=*&%&**-;:::,<148qeyrtippe&..XXO@&&****=:<1111,::::;;;<<311<",
";-;::<;:<<433<-*&&&*=;>::::40ept*.X+#%**&$%&*-;::::;;,133<<<<<<:>>;;--***%%*-:;:,24480eyteryue%..Xo+@%&&$%*-;:<1<:<:;;::,>,<<3<<",
"<:;::<<,<<133<--*&=*-::::<<36epi*.X+@$%&%$$$&*-,<:<<,,:,<<;;;<:;;;;-;--=*&&&-;-:,4680qtreq0yue&..Xo@#&&%#$&*;:,<,:<::;;:>,,<1555",
"<<:,:<:,<<11<<:-=*;;;,:>,1114qsp=XXO@$%&%@$$%&-::,<43<::<:------;;;;-:>----*-;-:<160qqeeq88quq%..XO+#&*%$%*-;:<<::,,,,::><<<3553",
"<1<<::::,<<111,;==;;::>;:>:<3epp*.X+@%**&$#$$**-:,<<1<,:;-&-----,>:;-:>;-----;<<<289w0eq9846e9$..Xo+#&&&***-:,:,:,<11<,;,,<<3531",
"<11:;;:-><<1331<:;-;;;;;;::,2rfy*.X+#%***%$#$&**;,<,<,;---&---;;,<<<:,::;---;,23348899q90534q4$..Xo+#%&--;;:<:>,1<<33<<::,<<<<<<",
"11:;--;:><<<<141,;;-;====:><4ihu*.X+@%--*&#@$$&*;,:,,:-----*--;:<11<:,:<:;;-:<25889888988435q4@ .XX+$%---;:<<,,<53<<3<,:::,:<<<<",
":,;----:,<<<<<1<>;=--=**;:<4eiji*XX+#&-;=&$$$**-::-;,:;-;:----;,<<1<,,<1::;::,4558544455333504$ .Xo+$--:,,<33<3553<<<<:--:<,,:<<",
",;;;:--:<,<>><<>-******==;14eijs*.X+$*-;-&&&&**-:;;:,,::,,----:::<<1<<<11,1:;,14355333441<<483@ ..oO$*:,<3585<<<1<,<,::-;:<,:,<<",
":::,:-;:>;;>:;:-=&&&&%*==-,38ygf-XX@&*;;;*=***-;;:,<<<<<<<,;-;:::>,1<<211<1,:,<1111413341<:243#..Xo+$-:,37095<<<,<;;-;---:,:;,,,",
"::::<--:>:;-;:;**&%$$&&=-->26ujh;Xo@%*;,>;:--;;;:,<<3<<53<<;----:>:,<<<<3131<<121<1<<333<,,142$. Xo+#-:<37w0553<:;-------;;;-:::",
":<<;---;>>;-=;-**&%$$%&*-:,19ygf;Xo+%*>,,,,,:<<<<<5<<<15653,---*;:::<,,1<113<1221<<,11<<:,:,42$. Xo#%;<15887575<<;------;;--;---",
";:;;==-:>;==*-;-=*&$$&&&=:>16ygs;XX+$*;<221<<14135551350955<:--&=:>><:;<,,,1<1115<:<1<,::;;,11@ XoO#-<<359085895<;-;---:,:;--**-",
";;-=***;;;--*-;::-&$$&*=-:><3efp=.X+$*:135513<5155553568083<::-&-,<<<:-;::<<<<1111<,,,::::;:<<#.XoO$-<1560868083<<:,,<:<,:;-&&&-",
"-;-=*&*---;;-:>1,;***===-::<<efs*.X+@*:4905133<<<5555668053,:---:<11<::::<::<<<<,<<,:,:-:::;<<@..o@$-,350086565311,<<1<<,,---%&-",
"--;-**=--;;:><11,>;-=;;--;:,2epu&.XO@%;46q955<3555559q88551,;-*-::<::::-;;----::::--&------;31$.Xo#%-,358853<<<311<<,<<::--*-&%%",
"====*=----=->,:,>;:---;---;>36re% XX+$-:<<<<,,,,<<<<<<<51<;-*&%&&-*****&*&&$$$$$%$$###$$$%%-<1$.Xo+$&-,:,,:;:-:-;;;------&$$#$##",
"%##$%%%&&%$&*****=*&&&******;,44$ .Xo+#$%**&-%%&&-&******&%##@@@##+#+@+++OOoO+oooOOooooOO++%-;#.XoO+#$%%%$$$##$$#$$$$####+OOOOOO",
"OoOO+++++++O++++@#@@++++@+@@$*;-#  . X ...............XXX XXXXXXX  Xoo ..... ....X.XXXXXXoXXXXXXXXXXX..XXXXXXX.XXXXX.XXXXXXXXXoX",
"....X.X.XXXXXXXXXXX.XXX.X.XXoO#$o  ......X.X..X.X.XX.X.XXXXXXXXXXX.XXo ..............XXXXooXXXXXXXXX.XX.XXXX.XXX..X.XX.X.XXXXXXo",
"......X......XXX.X......XX.XooO+o XX..X..........X.X.X...XXX XX... .XX  .  ........ .XXXXXXXXX.XXXXX..X...X..XX.XX.X..X.X.XXXXXX"
};
